<svg xmlns="http://www.w3.org/2000/svg" viewBox="0 0 448.45 90.52"><defs><style>.cls-1{isolation:isolate;}.cls-2,.cls-3,.cls-6{mix-blend-mode:multiply;}.cls-3{fill:#c2000b;}.cls-4{fill:#999;}.cls-5{fill:#06133c;}.cls-6{fill:#8f000a;}</style></defs><title>Asset 11</title><g class="cls-1"><g id="Layer_2" data-name="Layer 2"><g id="Camada_1" data-name="Camada 1"><g class="cls-2"><polygon class="cls-3" points="43.5 75.41 17.41 30.16 0 30.15 34.79 90.48 104.44 90.52 95.74 75.43 43.5 75.41"/></g><polygon class="cls-4" points="34.82 30.17 26.13 15.08 8.71 15.07 17.41 30.16 34.82 30.17"/><polygon class="cls-4" points="104.45 60.36 87.04 60.35 95.74 75.43 113.15 75.44 104.45 60.36"/><polygon class="cls-5" points="17.43 0 52.22 60.33 121.86 60.37 87.07 0.04 17.43 0"/><polygon class="cls-6" points="17.41 30.16 43.5 75.41 95.74 75.43 87.04 60.35 78.32 60.35 52.22 60.33 52.22 60.33 52.22 60.33 40.25 39.59 34.82 30.17 17.41 30.16"/><path class="cls-5" d="M155.13,29.05a5,5,0,0,0-1.87,4.06,4.59,4.59,0,0,0,2.28,4q2.28,1.49,10.53,3.52t12.81,6.09q4.56,4.06,4.56,11.86a15.65,15.65,0,0,1-5.85,12.65q-5.85,4.85-15.38,4.85-13.76,0-24.79-10.2l7.71-9.45q9.37,8.21,17.33,8.21a9.09,9.09,0,0,0,5.6-1.53,4.93,4.93,0,0,0,2-4.15,4.83,4.83,0,0,0-2.16-4.15q-2.16-1.53-8.54-3.11-10.12-2.4-14.8-6.26t-4.68-12.11q0-8.25,5.93-12.73t14.8-4.48a35.6,35.6,0,0,1,11.61,2,31.1,31.1,0,0,1,10.12,5.64l-6.55,9.45q-7.55-5.72-15.59-5.72A7.8,7.8,0,0,0,155.13,29.05Z"/><path class="cls-5" d="M228,45.93h13V66.49q-8.63,9.62-23.88,9.62a29.49,29.49,0,0,1-21.44-8.46Q187,59.19,187,46.3a28.85,28.85,0,0,1,8.83-21.52,29.4,29.4,0,0,1,21.31-8.62,31.52,31.52,0,0,1,21.68,8.21l-6.72,9.7a25.64,25.64,0,0,0-7.17-4.68,19.25,19.25,0,0,0-7.09-1.29,17,17,0,0,0-12.44,5q-5.06,5-5.06,13.23t4.85,13.14a15.66,15.66,0,0,0,11.57,4.93A22.2,22.2,0,0,0,228,61.85Z"/><path class="cls-5" d="M289.17,75.44l-5.39-12.52h-24.3l-5.39,12.52H240.33l25-58h12.52l25,58ZM271.67,34.73l-7.3,16.83h14.51Z"/><path class="cls-5" d="M325.82,28.68V75.44H312.88V28.68H296.46V17.48h45.77V28.68Z"/><path class="cls-5" d="M389.33,17.48V29H360.48V41h26V52h-26V64h29.77V75.44h-42.7v-58Z"/><path class="cls-5" d="M424.24,64a19.09,19.09,0,0,0,15.59-7.55L448.12,65q-9.87,11.11-23.26,11.11t-22.06-8.46q-8.66-8.46-8.66-21.35A28.85,28.85,0,0,1,403,24.78a29.74,29.74,0,0,1,21.6-8.62A30.63,30.63,0,0,1,448.45,27l-8,9.12q-6.14-7.63-15.26-7.63a17.79,17.79,0,0,0-12.48,4.77q-5.18,4.77-5.18,12.85t4.89,13A16.14,16.14,0,0,0,424.24,64Z"/></g></g></g></svg>