<svg xmlns="http://www.w3.org/2000/svg" viewBox="0 0 232.95 48.67"><defs><style>.cls-1{fill:#fff;}</style></defs><title>Asset 21</title><g id="Layer_2" data-name="Layer 2"><g id="Camada_1" data-name="Camada 1"><path class="cls-1" d="M57.32,33.12h9L47.2,0,9,0l4.48,7.78h-9L9,15.55H0L19.09,48.65l38.22,0L52.82,40.9h9ZM12.45,2,46,2,62.83,31.13H29.23L17.5,10.76l-1.72-3h0Zm41.4,44.67-33.6,0L3.46,17.55h6.67L23.58,40.88H50.51Z"/><path class="cls-1" d="M81.71,16a2.58,2.58,0,0,0-1,2.09,2.37,2.37,0,0,0,1.18,2.07A21.5,21.5,0,0,0,87.36,22,15.3,15.3,0,0,1,94,25.11a7.76,7.76,0,0,1,2.35,6.11,8.07,8.07,0,0,1-3,6.52,12,12,0,0,1-7.93,2.5A18.35,18.35,0,0,1,72.59,35l4-4.87q4.83,4.23,8.93,4.23a4.69,4.69,0,0,0,2.89-.79,2.54,2.54,0,0,0,1-2.14,2.49,2.49,0,0,0-1.11-2.14,14.52,14.52,0,0,0-4.4-1.6q-5.22-1.24-7.63-3.23T73.87,18.2a7.74,7.74,0,0,1,3.06-6.56,12.3,12.3,0,0,1,7.63-2.31,18.36,18.36,0,0,1,6,1,16,16,0,0,1,5.22,2.91l-3.38,4.87a13.16,13.16,0,0,0-8-2.95A4,4,0,0,0,81.71,16Z"/><path class="cls-1" d="M119.27,24.68H126v10.6q-4.45,5-12.31,5a15.2,15.2,0,0,1-11.05-4.36,14.74,14.74,0,0,1-4.47-11,14.88,14.88,0,0,1,4.55-11.09,15.16,15.16,0,0,1,11-4.45,16.25,16.25,0,0,1,11.18,4.23l-3.46,5a13.22,13.22,0,0,0-3.7-2.42,9.92,9.92,0,0,0-3.65-.66,8.75,8.75,0,0,0-6.41,2.59A9.18,9.18,0,0,0,105,24.89a9.25,9.25,0,0,0,2.5,6.78,8.07,8.07,0,0,0,6,2.54,11.45,11.45,0,0,0,5.77-1.33Z"/><path class="cls-1" d="M150.82,39.9,148,33.44H135.52l-2.78,6.46h-7.1L138.55,10H145L157.92,39.9Zm-9-21L138,27.59h7.48Z"/><path class="cls-1" d="M169.72,15.79V39.9H163V15.79h-8.47V10h23.6v5.77Z"/><path class="cls-1" d="M202.46,10V16H187.59v6.16H201V27.8H187.59V34h15.35v5.9h-22V10Z"/><path class="cls-1" d="M220.46,34a9.84,9.84,0,0,0,8-3.89l4.27,4.4q-5.09,5.73-12,5.73a15.61,15.61,0,0,1-11.37-4.36,14.74,14.74,0,0,1-4.47-11,14.88,14.88,0,0,1,4.55-11.09,15.33,15.33,0,0,1,11.14-4.45,15.79,15.79,0,0,1,12.31,5.6l-4.15,4.7a9.72,9.72,0,0,0-7.87-3.93,9.17,9.17,0,0,0-6.43,2.46,8.57,8.57,0,0,0-2.67,6.63,9,9,0,0,0,2.52,6.69A8.32,8.32,0,0,0,220.46,34Z"/></g></g></svg>